# xmcd
#
# Track frame offsets:
#	150
#	12931
#	27118
#	40012
#	49564
#	60386
#	70547
#	83361
#	96189
#	111888
#	123675
#	136140
#	148578
#	161772
#	173428
#	185855
#	198287
#	210371
#	221028
#	234540
#	255078
#	269317
#	288101
#	299831
#
# Disc length: 4213 seconds
#
# Revision: 0
# Processed by: cddbd v1.5.2PL0 Copyright (c) Steve Scherf et al.
# Submitted via: audiograbber 1.83.01
#
DISCID=4e107318
DTITLE=Merle Haggard - Hag - The best of Merle Haggard
DYEAR=1900
DGENRE=Country
TTITLE0=The Bottle Let Me Down
TTITLE1=Branded Man
TTITLE2=Sing Me Back Home
TTITLE3=The Legend Of Bonnie And Clyde
TTITLE4=Today I Started Loving You Again
TTITLE5=Mama Tried
TTITLE6=I'm Bringin' Home Good News
TTITLE7=I Take A Lot Of Pride In What I Am
TTITLE8=Hungry Eyes
TTITLE9=Workin' Man Blues
TTITLE10=Silver Wings
TTITLE11=Okie From Muskogee
TTITLE12=The Fightin' Side Of Me
TTITLE13=Someday We'll Look Back
TTITLE14=If We Make It Through December
TTITLE15=Things Aren't Funny Anymore
TTITLE16=Honky Tonk Night Time Man
TTITLE17=Old Man From The Mountain
TTITLE18=Living With The Shades Pulled Down
TTITLE19=I Think I'll Just Stay Here And Drink
TTITLE20=I'm Leavin' Now
TTITLE21=Runaway Mama
TTITLE22=That's The News
TTITLE23=She Ain't Hooked On Me No More
EXTD=
EXTT0=
EXTT1=
EXTT2=
EXTT3=
EXTT4=
EXTT5=
EXTT6=
EXTT7=
EXTT8=
EXTT9=
EXTT10=
EXTT11=
EXTT12=
EXTT13=
EXTT14=
EXTT15=
EXTT16=
EXTT17=
EXTT18=
EXTT19=
EXTT20=
EXTT21=
EXTT22=
EXTT23=
PLAYORDER=
